:SAMPLES-PER-SECOND 30
:FULLY-SPECIFIED
:DEGREES
402
root  33.8523 37.6466 18.6979 165.225 78.2308 169.32
RightUpLeg  -20.5973 -5.08476 -1.94857
RightLeg  11.1663 3.49388 0.669117
RightFoot  9.51403 -0.454849 2.8146
RightToes  -1.74624e-010 0 -3.6325e-017
Spine  4.31225 -0.744513 4.57139
Spine1  6.47224 0.180623 -3.93844
HEad  -4.48755 4.72151 -3.06081
LeftShoulder1  -0.551119 4.88622 -33.7159
LeftArm  15.4272 -0.938297 -42.5955
LeftForeArm  17.7818 -23.5466 -4.20874
LeftHand  -0.0120035 6.42787 2.20855
RightShoulder  -1.05869 -6.31085 31.1589
RightArm  18.8031 -5.50446 44.6091
RightForeArm  13.4079 14.7666 6.01654
RightHand  -0.0690199 4.07821 -1.11832
LeftUpLeg  19.2591 5.05639 -3.75303
LeftLeg  15.8343 -2.79899 -0.30952
LeftFoot  -19.7976 0.307157 2.54701
LeftToes  2.27646e-009 -8.13696e-011 -1.44715e-011
403
root  35.2866 37.6021 18.4625 174.809 78.5946 179.215
RightUpLeg  -21.2394 -4.29392 0.177195
RightLeg  17.1637 3.00464 0.862615
RightFoot  7.21039 0.0707416 -0.138839
RightToes  -1.74624e-010 0 -3.6325e-017
Spine  4.34947 -0.922192 7.85551
Spine1  6.43113 0.14648 -3.9074
HEad  -3.72462 5.94068 -3.85289
LeftShoulder1  -0.615812 5.03546 -34.0423
LeftArm  15.5276 1.59193 -42.5172
LeftForeArm  17.503 -21.1242 -4.70597
LeftHand  0.00663739 7.05049 2.87687
RightShoulder  -1.06873 -6.33124 31.2427
RightArm  16.3173 -5.21143 43.9138
RightForeArm  15.037 12.4875 6.38816
RightHand  -0.0691128 4.23975 -1.11677
LeftUpLeg  19.8253 4.19466 -1.25682
LeftLeg  19.4882 -3.22652 -0.954904
LeftFoot  -18.6352 0.0457472 -1.05584
LeftToes  2.27646e-009 -8.13696e-011 -1.44715e-011
404
root  36.6388 37.5767 18.2762 -179.143 78.4297 -175.292
RightUpLeg  -21.8459 -3.25476 1.39973
RightLeg  21.3125 1.68494 0.504009
RightFoot  4.72338 0.359919 -2.31662
RightToes  -1.74624e-010 0 -3.6325e-017
Spine  3.6772 -0.922955 9.21387
Spine1  6.63402 0.0707887 -2.62302
HEad  -3.10414 6.42114 -4.45562
LeftShoulder1  -0.675925 5.16293 -34.5539
LeftArm  12.0861 4.21845 -42.369
LeftForeArm  21.2836 -18.3731 -6.08102
LeftHand  0.00200918 7.23251 2.48891
RightShoulder  -1.04461 -6.29478 30.8734
RightArm  14.374 -4.8841 43.427
RightForeArm  16.3577 10.4416 6.55371
RightHand  -0.00566053 4.2478 -0.323844
LeftUpLeg  17.3364 4.30454 0.775026
LeftLeg  26.4203 -4.66198 -2.2099
LeftFoot  -15.1392 -0.0811314 -5.80346
LeftToes  2.27646e-009 -8.13696e-011 -1.44715e-011
405
root  37.8821 37.6337 18.1868 -175.793 76.7848 -172.319
RightUpLeg  -21.3074 -3.59066 2.16413
RightLeg  23.7063 0.569338 0.0512698
RightFoot  1.99141 0.399698 -3.27811
RightToes  -1.74624e-010 0 -3.6325e-017
Spine  3.13479 -1.1641 9.26516
Spine1  7.14858 -0.446769 -0.415628
HEad  -3.32166 7.86328 -4.85702
LeftShoulder1  -0.746017 5.3083 -35.1541
LeftArm  7.89885 5.56578 -42.0237
LeftForeArm  26.9651 -15.0415 -7.79699
LeftHand  -0.0347346 7.95208 0.404074
RightShoulder  -1.02377 -6.25538 30.645
RightArm  12.2599 -5.29544 43.1131
RightForeArm  17.398 9.93504 6.01526
RightHand  0.0385969 3.3312 0.273477
LeftUpLeg  12.7494 3.35941 2.63843
LeftLeg  35.6936 -5.19215 -3.59476
LeftFoot  -7.15438 0.360363 -9.06905
LeftToes  2.27646e-009 -8.13696e-011 -1.44715e-011
406
root  39.0162 37.6921 18.0573 -172.197 74.7368 -169.095
RightUpLeg  -20.3228 -5.07881 3.23905
RightLeg  24.9483 0.0603827 -0.205703
RightFoot  -0.645973 0.295952 -3.20487
RightToes  -1.74624e-010 0 -3.6325e-017
Spine  2.9484 -1.34801 10.6907
Spine1  7.37372 -0.58926 0.294645
HEad  -5.8897 11.5936 -5.09475
LeftShoulder1  -0.75595 5.31996 -35.4234
LeftArm  5.69317 6.36101 -41.6283
LeftForeArm  31.8229 -12.8171 -8.83782
LeftHand  -0.0882836 8.36877 -1.62398
RightShoulder  -1.00197 -6.21641 30.3725
RightArm  11.378 -6.01754 42.8664
RightForeArm  15.7473 10.4152 5.66029
RightHand  -0.0765124 3.5656 -1.2476
LeftUpLeg  6.43937 1.66111 4.06963
LeftLeg  45.8126 -3.48725 -3.4143
LeftFoot  3.89264 1.02259 -8.07329
LeftToes  2.27646e-009 -8.13696e-011 -1.44715e-011
